<svg width="120" height="28" viewBox="0 0 120 28" fill="none" xmlns="http://www.w3.org/2000/svg">
<path fill-rule="evenodd" clip-rule="evenodd" d="M0 7.18332C0 12.359 0.0144322 14.381 0.0516841 14.4182C0.0801268 14.4465 3.18966 16.1689 6.96175 18.2457L13.82 22.0217L12.3104 23.5293L10.8007 25.037L12.3196 26.5185C13.155 27.3333 13.8526 28 13.8699 28C13.8872 28 14.5848 27.3333 15.4202 26.5185L16.9391 25.037L15.4294 23.5293L13.9198 22.0217L20.7781 18.2457C24.5501 16.1689 27.6597 14.4465 27.6881 14.4182C27.7254 14.381 27.7398 12.359 27.7398 7.18332C27.7398 3.23249 27.7291 0 27.716 0C27.7029 0 24.5985 1.99064 20.8173 4.42367C17.0361 6.85671 13.9098 8.84739 13.8699 8.84739C13.83 8.84739 10.7037 6.85671 6.92249 4.42367C3.1413 1.99064 0.0369239 0 0.0238037 0C0.0107304 0 0 3.23249 0 7.18332ZM49.8332 6.33683C48.9663 6.44528 48.0491 6.74588 47.3966 7.13531C45.7234 8.13406 44.6674 9.89677 44.2984 12.3069C44.1779 13.0942 44.1783 14.9659 44.2993 15.7631C44.8829 19.6119 47.1587 21.7193 50.7295 21.7178C51.8265 21.7174 52.755 21.5281 53.5928 21.1342C55.3542 20.306 56.5462 18.641 57.0015 16.3731C57.1651 15.5576 57.2133 15.0181 57.2133 14.0015C57.2133 12.1744 56.9499 10.8773 56.319 9.598C55.2503 7.431 53.2821 6.28601 50.6707 6.31226C50.2874 6.31609 49.9106 6.32716 49.8332 6.33683ZM32.8473 14.0117V21.3912H34.417H35.9868V18.3786V15.3661H38.1891H40.3914V14.2219V13.0776H38.1891H35.9868V10.9992V8.92077H38.5171C40.0373 8.92077 41.0474 8.90349 41.0474 8.87752C41.0474 8.85375 41.1212 8.34479 41.2114 7.7465C41.3016 7.14824 41.3754 6.65274 41.3754 6.64546C41.3754 6.63817 39.4566 6.63219 37.1114 6.63219H32.8473V14.0117ZM60.1185 6.6704C60.1185 6.69142 60.973 8.24685 62.0174 10.1269L63.9164 13.5452L61.8474 17.4331C60.7094 19.5715 59.7693 21.3369 59.7582 21.3561C59.7472 21.3754 60.4932 21.3907 61.4161 21.3902L63.094 21.3893L64.4255 18.4945C65.1579 16.9023 65.7681 15.6107 65.7817 15.6242C65.7953 15.6377 66.409 16.9356 67.1456 18.5083L68.4849 21.3678L70.211 21.38C71.5862 21.3899 71.9323 21.3803 71.9133 21.3333C71.9002 21.3009 70.9393 19.5107 69.778 17.3551C68.6168 15.1995 67.674 13.4236 67.683 13.4085C67.9867 12.9006 71.505 6.6994 71.505 6.67194C71.505 6.65008 70.7663 6.63219 69.8634 6.63219H68.222L67.3456 8.41868C66.8637 9.40123 66.3214 10.5054 66.1405 10.8723L65.8118 11.5395L64.6637 9.08652L63.5157 6.63359L61.8171 6.63289C60.8829 6.63252 60.1185 6.64938 60.1185 6.6704ZM78.5805 14.0817V21.3912H79.2128H79.8451L79.8571 17.8299L79.8691 14.2686L83.3248 14.2566L86.7806 14.2446V17.8192V21.3938L87.4249 21.3808L88.0692 21.3678V14.0817V6.79566L87.4249 6.78268L86.7806 6.76969V9.97062V13.1716L83.3248 13.1596L79.8691 13.1476L79.857 9.95997L79.845 6.77231H79.2127H78.5805V14.0817ZM94.6996 12.1373C94.6996 16.7139 94.71 17.5633 94.7705 17.9172C94.9762 19.1199 95.5163 20.0811 96.3396 20.7094C97.0865 21.2795 97.9291 21.5512 99.1276 21.6085C100.678 21.6827 101.931 21.299 102.793 20.4858C103.424 19.8903 103.811 19.2317 104.059 18.3319L104.188 17.8649L104.201 12.3173L104.214 6.76965L103.569 6.78268L102.923 6.79566L102.899 12.2602L102.875 17.7248L102.771 18.0984C102.713 18.3039 102.571 18.6655 102.454 18.9019C102.061 19.6984 101.422 20.1827 100.487 20.3938C99.9327 20.5187 98.893 20.5079 98.337 20.3713C97.1268 20.0742 96.398 19.292 96.0899 17.9596C95.9947 17.5478 95.9921 17.4124 95.9769 12.1551L95.9614 6.77231H95.3305H94.6996V12.1373ZM110.84 6.83069C110.828 6.86283 110.823 10.1468 110.83 14.1284L110.842 21.3678L113.021 21.3816C114.338 21.3899 115.412 21.3753 115.736 21.3447C118 21.1312 119.393 20.201 119.864 18.5876C119.994 18.1425 120.043 17.0311 119.957 16.4954C119.832 15.7277 119.533 15.1298 119.043 14.6736C118.527 14.1919 117.745 13.8059 117.086 13.7074C116.82 13.6676 116.833 13.6219 117.132 13.5469C117.561 13.439 118.082 13.1267 118.457 12.752C118.856 12.3531 119.057 12.0115 119.214 11.4646C119.354 10.9761 119.366 9.9538 119.236 9.48123C119.077 8.90335 118.852 8.5141 118.438 8.10342C117.692 7.36272 116.606 6.95843 114.989 6.81944C114.163 6.74844 110.868 6.75736 110.84 6.83069ZM112.131 10.5321V13.171H113.88C115.477 13.171 115.662 13.1628 116.001 13.0773C117.5 12.6983 118.268 11.4528 117.968 9.88739C117.753 8.76888 116.944 8.15867 115.389 7.94313C115.191 7.91571 114.377 7.89324 113.58 7.89324H112.131V10.5321ZM50.2784 8.68383C48.8344 8.88555 48.0002 9.8928 47.646 11.8623C47.5079 12.6305 47.4714 14.6921 47.5795 15.623C47.7956 17.4843 48.3805 18.587 49.4115 19.0767C49.8626 19.291 50.1716 19.3545 50.747 19.3514C52.3309 19.343 53.2911 18.4389 53.6905 16.5802C53.8589 15.7963 53.9051 15.2438 53.9051 14.0117C53.9051 12.7796 53.8589 12.2271 53.6905 11.4431C53.3061 9.65395 52.4115 8.76155 50.911 8.67057C50.7048 8.65805 50.4201 8.66403 50.2784 8.68383ZM112.131 17.2775V20.3169L113.548 20.3165C115.703 20.3159 116.45 20.221 117.219 19.8505C117.889 19.5274 118.289 19.0774 118.535 18.3706C118.649 18.0419 118.662 17.9391 118.664 17.3511C118.665 16.8729 118.643 16.6157 118.583 16.3937C118.308 15.3698 117.599 14.7023 116.442 14.3763C116.115 14.2843 115.951 14.2759 114.11 14.2577L112.131 14.2381V17.2775Z" fill="#A5A5A5"/>
</svg>
