<svg width="112" height="28" viewBox="0 0 112 28" fill="none" xmlns="http://www.w3.org/2000/svg">
<path fill-rule="evenodd" clip-rule="evenodd" d="M9.07913 0.0111559C8.53802 0.0699526 7.8728 0.195304 7.37035 0.333229C3.97439 1.2651 1.25977 3.98316 0.329082 7.38341C-0.0109755 8.62566 4.07879e-05 8.40417 4.07879e-05 14.0019C4.07879e-05 19.5996 -0.0109755 19.3781 0.329082 20.6203C1.25977 24.0206 3.97439 26.7386 7.37035 27.6705C8.61103 28.011 8.38982 28 13.9804 28C19.5711 28 19.3498 28.011 20.5905 27.6705C23.9865 26.7386 26.7011 24.0206 27.6318 20.6203C27.9718 19.3781 27.9608 19.5996 27.9608 14.0019C27.9608 9.34758 27.9545 8.94007 27.8753 8.46909C27.5965 6.81114 26.9525 5.31206 25.9356 3.95371C25.6083 3.51662 24.8062 2.68056 24.3435 2.29432C23.028 1.1962 21.4346 0.454234 19.6519 0.109727C19.1504 0.0127917 19.0233 0.0102679 14.1905 0.00194845C11.4691 -0.00277211 9.16899 0.0013876 9.07913 0.0111559ZM83.3689 3.68866C82.8177 3.87211 82.4022 4.23353 82.1643 4.73644C82.0292 5.0221 82.0152 5.093 82.0152 5.49649C82.0152 5.90368 82.0281 5.96761 82.1662 6.2486C82.3496 6.62167 82.7105 6.99427 83.0487 7.15995C83.5861 7.42323 84.3714 7.41692 84.9327 7.1449C85.2531 6.98964 85.6717 6.57451 85.8183 6.26669C85.9698 5.94873 86.0071 5.2421 85.8909 4.89189C85.7349 4.42137 85.2677 3.95296 84.746 3.74367C84.4713 3.63351 83.635 3.60009 83.3689 3.68866ZM9.12581 10.6123V15.7198L8.41395 15.7437C7.60542 15.7708 7.28954 15.8443 6.67282 16.1486C6.13816 16.4124 5.72271 16.8063 5.49744 17.2629C5.33061 17.601 5.32151 17.6427 5.32272 18.0658C5.32384 18.4555 5.34083 18.549 5.45688 18.8029C5.7784 19.5066 6.45716 19.8753 7.63819 19.988C8.81642 20.1005 9.62117 19.8181 10.4383 19.0054C10.8169 18.6289 10.9169 18.4965 11.076 18.1616C11.1797 17.9431 11.2875 17.6528 11.3155 17.5166C11.3493 17.3522 11.3664 16.2126 11.3664 14.1287V10.9885L12.3092 11.9694C12.8278 12.5089 13.5521 13.2552 13.9189 13.628L14.5858 14.3057L16.267 12.6233L17.9482 10.941V16.8414V22.7419H19.0685H20.1888V14.1305V5.51916L17.3885 8.32271L14.5882 11.1263L14.4785 11.01C14.2061 10.7213 10.7918 7.20384 10.0035 6.39985L9.12581 5.50477V10.6123ZM38.6021 9.44241C37.4426 9.62287 36.498 10.2741 35.845 11.3434L35.6629 11.6416L35.6503 10.6718L35.6376 9.70195H34.1682H32.6988V15.9181V22.1343H34.2607H35.8226L35.8375 18.3368L35.8524 14.5394L35.9592 14.1896C36.2702 13.1714 36.9477 12.4937 37.8801 12.2682C38.2462 12.1796 39.0569 12.1885 39.3739 12.2845C40.0861 12.5003 40.5144 13.0702 40.6795 14.0221C40.7099 14.1976 40.7276 15.7394 40.7276 18.2175V22.1356L42.2796 22.1232L43.8317 22.1109L43.856 18.3485C43.8799 14.6443 43.8819 14.5804 43.9835 14.2196C44.3288 12.9947 45.0995 12.3046 46.2357 12.2031C46.9221 12.1419 47.5761 12.3261 47.9782 12.694C48.2722 12.9631 48.4862 13.3428 48.6279 13.847C48.7294 14.208 48.7307 14.2571 48.7454 18.1739L48.7603 22.1356L50.3104 22.1232L51.8605 22.1109L51.8602 17.9512C51.8598 13.8094 51.8593 13.789 51.7519 13.1915C51.476 11.6581 50.9022 10.6663 49.9249 10.0338C49.3039 9.63189 48.6091 9.43194 47.6828 9.38857C45.8676 9.3036 44.5026 9.93424 43.5816 11.2833L43.3476 11.6262L43.2446 11.4236C42.8414 10.6296 42.2088 10.0339 41.4379 9.72214C40.6461 9.40189 39.5542 9.29421 38.6021 9.44241ZM94.3 9.42096C90.9933 9.83866 88.7345 12.1276 88.4844 15.3141C88.3265 17.3252 88.9152 19.0674 90.2114 20.425C91.0974 21.3529 92.2594 21.978 93.6617 22.2809C94.0733 22.3698 94.2976 22.3871 95.062 22.3891C95.8491 22.391 96.0377 22.3767 96.4551 22.2831C97.5235 22.0435 98.5718 21.575 99.2621 21.0285C99.4714 20.8627 99.6361 20.7082 99.628 20.6852C99.6199 20.6622 99.1582 20.1513 98.602 19.5499L97.5908 18.4565L97.2614 18.7735C95.617 20.3559 92.705 19.5954 91.8409 17.358C91.6405 16.839 91.5442 16.2267 91.5777 15.6844C91.6148 15.0864 91.7116 14.7252 91.9909 14.144C92.198 13.7131 92.2764 13.6046 92.652 13.23C93.0098 12.8731 93.1493 12.77 93.5216 12.5867C94.0019 12.3503 94.375 12.2474 94.922 12.2006C95.7135 12.1328 96.53 12.4831 97.2803 13.2122L97.5145 13.4399L98.6033 12.3491L99.692 11.2582L99.3434 10.9421C98.5236 10.1987 97.6485 9.76491 96.4523 9.50916C95.9584 9.40353 94.8104 9.35651 94.3 9.42096ZM105.752 9.42311C104.055 9.6296 102.68 10.2076 101.706 11.1236L101.434 11.3793L102.254 12.2034L103.075 13.0275L103.328 12.8093C103.844 12.3642 104.625 11.9918 105.4 11.8206C105.873 11.7161 106.801 11.7172 107.269 11.8228C108.545 12.111 109.199 12.9057 109.205 14.1771L109.206 14.3758L108.167 14.3762C104.296 14.3777 102.101 15.1176 101.135 16.7468C100.768 17.365 100.639 17.9597 100.675 18.8704C100.703 19.587 100.836 20.035 101.175 20.5514C101.796 21.4989 102.855 22.1262 104.205 22.3476C104.895 22.4607 105.931 22.4221 106.551 22.2602C107.584 21.99 108.451 21.4107 108.976 20.6402C109.064 20.511 109.152 20.4051 109.171 20.4051C109.19 20.405 109.206 20.7944 109.206 21.2704V22.1357L110.595 22.1233L111.983 22.1109L111.997 18.5355C112.012 14.5643 111.978 13.5543 111.801 12.7867C111.544 11.6702 111.025 10.8476 110.24 10.3146C109.649 9.91321 108.934 9.63138 108.14 9.48756C107.659 9.40044 106.25 9.3624 105.752 9.42311ZM55.2095 14.0135C55.228 18.7968 55.223 18.7122 55.5457 19.6694C56.0071 21.0385 57.0603 21.9858 58.4827 22.3113C58.9874 22.4268 60.4687 22.4218 60.9396 22.3031C61.9693 22.0435 62.7647 21.4186 63.3911 20.377L63.5537 20.1067V21.1205V22.1343H65.024H66.4944V15.9181V9.70195H64.9566H63.4188L63.4018 13.406C63.3851 17.0308 63.3826 17.1182 63.2833 17.4951C62.9288 18.841 61.9673 19.6064 60.6268 19.6097C59.9625 19.6112 59.4934 19.4358 59.1205 19.0465C58.8394 18.7529 58.6865 18.468 58.5418 17.9678C58.3513 17.3097 58.3259 16.7388 58.3257 13.1022L58.3256 9.70195H56.7592H55.1928L55.2095 14.0135ZM69.4352 10.9405V12.1791H72.5627C74.2828 12.1791 75.6902 12.1954 75.6902 12.2155C75.6902 12.2355 74.2102 13.8182 72.4013 15.7325L69.1123 19.2132L69.1104 20.6739L69.1085 22.1347L74.4416 22.1228L79.7746 22.1109L79.7871 20.861L79.7995 19.6111L76.3141 19.599L72.8288 19.5871L76.1499 16.0583L79.4709 12.5296L79.4711 11.1158L79.4712 9.70195H74.4532H69.4352V10.9405ZM82.4235 15.9064L82.4354 22.1109L83.9874 22.1232L85.5395 22.1356V15.9187V9.70195H83.9756H82.4117L82.4235 15.9064ZM106.78 16.6246C105.656 16.7244 104.691 17.0434 104.175 17.4854C103.784 17.8207 103.652 18.5151 103.881 19.0362C104.187 19.7337 105.042 20.1164 106.172 20.0613C107.133 20.0144 107.788 19.7696 108.275 19.2765C108.759 18.7851 108.963 18.2101 109.005 17.2151L109.033 16.5725L108.127 16.5789C107.629 16.5824 107.023 16.603 106.78 16.6246Z" fill="#A5A5A5"/>
</svg>
