<svg width="70" height="28" viewBox="0 0 70 28" fill="none" xmlns="http://www.w3.org/2000/svg">
<path fill-rule="evenodd" clip-rule="evenodd" d="M28.5881 0.825149C26.6627 1.27681 25.0839 1.64804 25.0795 1.65005C25.0704 1.65425 24.2706 5.94475 24.2706 5.98924C24.2706 6.00521 23.704 6.01828 23.0113 6.01828H21.7519L21.7279 6.12332C21.7147 6.18111 21.5031 7.34176 21.2577 8.70259C21.0124 10.0634 20.8009 11.2132 20.7879 11.2578C20.7659 11.3329 20.8536 11.3396 22.0165 11.3511L23.2688 11.3636L22.4885 15.495C21.6664 19.848 21.5049 20.7849 21.4257 21.6573C21.356 22.4274 21.3653 23.5682 21.4454 24.0626C21.7843 26.1517 23.1779 27.4598 25.5303 27.8967C25.7718 27.9416 26.3157 27.9797 26.9177 27.9941C28.3278 28.0276 29.5664 27.9185 30.5812 27.6714C30.947 27.5823 30.9899 27.5603 31.0128 27.4509C31.0616 27.2169 31.8785 22.1468 31.8786 22.0774C31.8787 22.018 31.8132 22.012 31.4469 22.038C30.7645 22.0864 30.0992 22.0818 29.8004 22.0266C28.9606 21.8713 28.5647 21.3221 28.5647 20.3122C28.5647 19.592 28.6697 18.9479 29.4221 15.0516L30.1342 11.3636L32.2164 11.3514L34.2986 11.3393L34.3248 11.2114C34.3392 11.141 34.5511 10.0016 34.7956 8.67924C35.0402 7.35693 35.2522 6.21748 35.2668 6.14712L35.2931 6.01926L33.2235 6.00707L31.1539 5.99494L31.6938 2.99552C32.1437 0.496776 32.2216 -0.00325199 32.1612 1.58626e-05C32.1213 0.00220999 30.5134 0.373531 28.5881 0.825149ZM44.5976 5.60438C38.7413 6.10754 34.3603 10.8489 33.5823 17.5258C33.1708 21.0572 33.9097 23.74 35.8203 25.6513C37.4453 27.2768 39.5476 28.019 42.325 27.9478C44.1278 27.9015 45.5391 27.5653 47.0714 26.817C50.7254 25.0326 53.2111 21.3262 53.8817 16.6621C54.0498 15.4929 54.1014 13.8685 54 12.9373C53.8521 11.5798 53.3724 10.1518 52.7184 9.12274C51.0817 6.54725 48.1926 5.29552 44.5976 5.60438ZM63.5753 5.59845C61.1981 5.79793 59.1458 6.58917 57.6773 7.87213C56.5511 8.85608 55.7628 10.2021 55.441 11.6903C55.3215 12.243 55.274 13.5324 55.3547 14.0359C55.5266 15.1093 56.0414 16.0984 56.9007 17.0065C57.5995 17.745 58.2331 18.2175 59.5836 19.0068C61.1806 19.9403 61.6776 20.4756 61.676 21.2605C61.6732 22.6762 59.9514 23.1033 57.1766 22.3765C56.4964 22.1984 55.5704 21.8663 54.9218 21.568C54.6986 21.4654 54.5157 21.3962 54.5152 21.4143C54.5147 21.4324 54.1496 22.5554 53.7039 23.9099L52.8934 26.3725L53.2309 26.5829C54.0674 27.1044 55.434 27.5443 56.9432 27.7779C57.8425 27.9171 59.7686 27.9514 60.7706 27.8459C63.4027 27.5691 65.4143 26.7262 66.8428 25.3015C67.8473 24.2997 68.3961 23.2718 68.7064 21.8108C68.8447 21.1597 68.8825 19.9165 68.7816 19.3394C68.5484 18.0051 67.7324 16.7646 66.3549 15.6499C65.902 15.2835 64.678 14.4696 64.1545 14.1868C62.7678 13.4377 62.1642 12.7508 62.3071 12.0845C62.4126 11.5922 62.668 11.2849 63.1485 11.0721C63.5603 10.8897 63.9512 10.8284 64.7086 10.8275C65.8003 10.8262 66.8806 11.0254 67.8691 11.4103C68.1108 11.5044 68.3497 11.5849 68.3998 11.5892C68.4808 11.5961 68.5743 11.3276 69.2262 9.2161C69.6305 7.90663 69.9745 6.77735 69.9905 6.70658C70.0182 6.58488 70.0026 6.57022 69.701 6.43358C68.9143 6.07743 67.8353 5.80699 66.6516 5.66946C65.8873 5.58062 64.2406 5.54262 63.5753 5.59845ZM4.55068 6.07663C4.52263 6.15805 3.45354 11.7803 3.45354 11.8465C3.45354 11.8868 4.38578 11.9004 7.14474 11.9004C9.17492 11.9004 10.829 11.9166 10.8204 11.9363C10.8119 11.956 10.5213 12.2329 10.1748 12.5516C9.20774 13.4408 7.56337 15.1058 6.80677 15.9619C6.43234 16.3855 4.91241 18.1692 3.42913 19.9256L0.732286 23.1192L0.366353 25.2943C0.16509 26.4906 0.000233423 27.4957 4.78212e-08 27.5277C-0.000326678 27.5742 1.67344 27.5861 8.2144 27.5861C12.7325 27.5861 16.4292 27.5747 16.4292 27.5607C16.4292 27.5249 17.5027 21.8908 17.534 21.7623L17.5595 21.6573H13.4432C11.1792 21.6573 9.33381 21.6405 9.34239 21.62C9.35094 21.5995 9.67313 21.2986 10.0583 20.9513C11.7006 19.4708 12.4572 18.6435 16.2647 14.1646C17.749 12.4186 19.0154 10.9336 19.0791 10.8647C19.1844 10.7505 19.2297 10.537 19.5838 8.48383C19.7978 7.2433 19.9812 6.18111 19.9915 6.12332L20.0103 6.01828H12.2905C6.15659 6.01828 4.56669 6.03028 4.55068 6.07663ZM44.3876 11.0142C43.1819 11.2238 42.1421 12.4951 41.4098 14.6547C40.8493 16.3075 40.5688 18.0433 40.6193 19.5468C40.6477 20.3909 40.7405 20.8237 41.0116 21.3766C41.5491 22.4726 42.7597 22.8499 43.8975 22.2761C44.1874 22.1299 44.8612 21.4592 45.1287 21.0504C46.1558 19.4808 46.9069 16.5445 46.92 14.0479C46.9236 13.3596 46.9085 13.1667 46.8239 12.8235C46.5629 11.7634 45.9609 11.1454 45.0629 11.0156C44.6994 10.9631 44.6822 10.9631 44.3876 11.0142Z" fill="#A5A5A5"/>
</svg>
