<svg width="155" height="39" viewBox="0 0 155 39" fill="none" xmlns="http://www.w3.org/2000/svg">
<path d="M78.9692 16.274C78.4205 15.6409 77.7452 15.1344 76.9432 14.7967C76.1413 14.4591 75.2127 14.248 74.1997 14.248C72.7647 14.248 71.4985 14.5857 70.3589 15.2188C69.2615 15.8519 68.3752 16.7383 67.742 17.9201C67.1511 19.0597 66.8135 20.3681 66.8135 21.8454C66.8135 22.8583 66.9823 23.8291 67.3622 24.7577C67.742 25.6862 68.2485 26.4882 68.9238 27.1635C69.5992 27.8388 70.4011 28.3875 71.4141 28.8096C72.3848 29.2316 73.4822 29.4005 74.6218 29.4005C75.677 29.4005 76.7322 29.2316 77.7452 28.8518C78.6315 28.5563 79.4335 28.092 80.0666 27.5855C80.3198 27.3745 80.4042 26.9946 80.2354 26.6992L79.349 25.0953C79.2646 24.9265 79.0958 24.7999 78.8848 24.7577C78.6737 24.7154 78.4627 24.7577 78.2939 24.8843C77.8718 25.1797 77.4075 25.433 76.901 25.644C75.5082 26.1927 74.1153 26.1505 72.9757 25.644C72.427 25.3908 71.9206 24.9687 71.5407 24.4622C71.2452 24.0401 71.0342 23.5759 70.9498 23.0694C70.9498 22.985 70.8654 22.7739 70.8654 22.7739C70.8654 22.7739 71.1186 22.7739 71.203 22.7739H79.8555C80.2354 22.7739 80.5308 22.5207 80.573 22.1408C80.6153 21.7609 80.6153 21.4655 80.6153 21.2122C80.6153 20.2415 80.4886 19.3551 80.1932 18.5532C79.9399 17.6246 79.5179 16.9071 78.9692 16.274ZM76.69 19.8616H70.9498C71.1186 19.1019 71.4563 18.511 71.9628 18.0889C72.5115 17.5824 73.229 17.3292 74.0731 17.3292C74.8329 17.3292 75.4238 17.5824 75.9302 18.0889C76.3945 18.511 76.6478 19.1019 76.69 19.8616Z" fill="#fff"/>
<path d="M95.092 14.5857H92.8129C92.433 14.5857 92.0953 14.9234 92.0953 15.3033V15.7675C91.6733 15.3455 91.1668 15.0078 90.5337 14.7546C89.7739 14.4169 88.9298 14.2903 88.0856 14.2903C87.0727 14.2903 86.1441 14.5013 85.3 14.8812C84.498 15.2611 83.7805 15.7675 83.274 16.4429C82.7675 17.076 82.3455 17.8779 82.05 18.722C81.7968 19.5662 81.6279 20.4948 81.6279 21.5077C81.6279 22.4785 81.7546 23.4493 82.05 24.3356C82.3455 25.222 82.7675 25.9817 83.274 26.657C83.8227 27.3323 84.498 27.881 85.3422 28.2609C86.1863 28.6408 87.1149 28.8518 88.1278 28.8518C89.7317 28.8518 90.9557 28.3453 91.8843 27.2901V28.3031C91.8843 28.894 91.7999 29.3583 91.5888 29.7804C91.42 30.2024 91.1246 30.5401 90.7869 30.7511C90.4492 31.0044 90.0272 31.1732 89.6051 31.2998C89.183 31.4264 88.6765 31.4686 88.1278 31.4686C86.9883 31.4686 85.8909 31.2576 84.7935 30.7933C84.6246 30.7089 84.4136 30.7089 84.2026 30.7933C84.0337 30.8777 83.8649 31.0044 83.8227 31.1732L83.1474 32.9037C83.0208 33.2413 83.1474 33.6634 83.485 33.79C84.0759 34.0433 84.7513 34.2965 85.511 34.4654C86.3973 34.6764 87.3259 34.803 88.1701 34.803C88.9298 34.803 89.6895 34.7186 90.407 34.592C91.1246 34.4232 91.7999 34.1699 92.4752 33.8322C93.1505 33.4946 93.7414 33.0725 94.2057 32.5238C94.7122 32.0173 95.0921 31.342 95.3875 30.5823C95.683 29.8226 95.8096 28.9362 95.8096 27.9654V15.3033C95.8096 14.9234 95.4719 14.5857 95.092 14.5857ZM91.9687 21.4655C91.9687 22.183 91.8843 22.8584 91.7155 23.3648C91.5466 23.8713 91.3356 24.2934 91.0402 24.5889C90.7447 24.8843 90.407 25.0953 90.0694 25.222C89.7317 25.3486 89.3519 25.3908 88.9298 25.3908C87.8746 25.3908 87.0727 25.0531 86.4818 24.2934C85.8909 23.5337 85.5954 22.5629 85.5954 21.3389C85.5954 20.1993 85.8909 19.2707 86.3974 18.5954C86.946 17.9201 87.7058 17.6247 88.6765 17.6247C89.1408 17.6247 89.5629 17.6669 89.9428 17.7935C90.3226 17.9201 90.6603 18.0889 90.9557 18.3844C91.2512 18.6376 91.5044 19.0175 91.6733 19.5662C91.8843 20.0727 91.9687 20.748 91.9687 21.4655Z" fill="#fff"/>
<path d="M104.04 14.248C102.985 14.248 101.93 14.4169 100.917 14.7545C100.031 15.05 99.3132 15.3876 98.7645 15.7675C98.469 15.9785 98.3846 16.3584 98.5534 16.6539L99.3976 18.2999C99.482 18.4688 99.6508 18.5954 99.8619 18.6798C100.073 18.722 100.284 18.722 100.453 18.5954C101.55 17.9201 102.69 17.5824 103.787 17.5824C104.547 17.5824 105.138 17.7513 105.602 18.1311C106.024 18.4688 106.235 19.0597 106.277 19.8194H105.855C105.391 19.8194 104.885 19.8194 104.42 19.8616C103.956 19.9038 103.407 19.946 102.859 20.0304C102.31 20.1149 101.761 20.2415 101.255 20.4103C100.748 20.5791 100.284 20.7902 99.8197 21.0434C99.3554 21.2967 98.9333 21.6343 98.5956 21.972C98.258 22.3096 97.9625 22.7317 97.7515 23.2382C97.5405 23.7447 97.4561 24.2934 97.4561 24.9265C97.4561 25.8128 97.6671 26.5726 98.1314 27.2901C98.5534 27.9654 99.1443 28.4719 99.9041 28.8518C100.622 29.1894 101.466 29.4005 102.31 29.4005C103.281 29.4005 104.167 29.1472 105.011 28.6829C105.602 28.3453 106.109 27.881 106.531 27.3745C106.531 27.4589 106.531 27.5855 106.531 27.67V28.3453C106.531 28.7251 106.868 29.0628 107.248 29.0628H109.485C109.865 29.0628 110.203 28.7251 110.203 28.3453V20.0726C110.203 18.2577 109.654 16.8227 108.599 15.8097C107.417 14.7545 105.898 14.248 104.04 14.248ZM106.193 22.6473V22.8161C106.193 23.3648 106.066 23.9135 105.813 24.4622C105.56 24.9687 105.222 25.433 104.716 25.8128C104.251 26.1505 103.745 26.3193 103.154 26.3193C102.563 26.3193 102.099 26.1505 101.761 25.855C101.424 25.5174 101.255 25.1375 101.255 24.7154C101.255 24.42 101.339 24.209 101.466 23.9979C101.592 23.7869 101.761 23.5759 102.014 23.4492C102.268 23.2804 102.563 23.1538 102.859 23.0694C103.154 22.985 103.492 22.9005 103.829 22.8583C104.209 22.8161 104.547 22.7739 104.842 22.7739C105.138 22.7317 105.475 22.7317 105.771 22.7317H106.193V22.6473Z" fill="#fff"/>
<path d="M123.92 9.90057C122.949 9.35188 121.852 9.09863 120.585 9.09863H113.537C113.157 9.09863 112.819 9.43629 112.819 9.81616V28.3451C112.819 28.725 113.157 29.0627 113.537 29.0627H116.069C116.449 29.0627 116.787 28.725 116.787 28.3451V22.605C116.787 22.4361 116.913 22.3095 117.082 22.3095H120.585C121.809 22.3095 122.949 22.0141 123.92 21.4654C124.891 20.9167 125.693 20.1147 126.199 19.1018C126.748 18.0888 127.001 16.9492 127.001 15.6408C127.001 14.3745 126.706 13.1927 126.199 12.222C125.693 11.209 124.891 10.4493 123.92 9.90057ZM123.033 15.6408C123.033 16.6115 122.78 17.4135 122.232 17.9622C121.683 18.5109 120.923 18.8063 119.952 18.8063H116.829V12.5174H119.995C120.923 12.5174 121.683 12.8129 122.189 13.3616C122.738 13.9103 123.033 14.67 123.033 15.6408Z" fill="#fff"/>
<path d="M133.838 14.248C132.783 14.248 131.728 14.4169 130.715 14.7545C129.829 15.05 129.111 15.3876 128.563 15.7675C128.267 15.9785 128.183 16.3584 128.352 16.6539L129.196 18.2999C129.28 18.4688 129.449 18.5954 129.66 18.6798C129.871 18.722 130.082 18.722 130.251 18.5954C131.348 17.9201 132.488 17.5824 133.585 17.5824C134.345 17.5824 134.936 17.7513 135.358 18.1311C135.78 18.4688 135.991 19.0597 136.033 19.8194H135.611C135.147 19.8194 134.64 19.8194 134.176 19.8616C133.712 19.9038 133.163 19.946 132.614 20.0304C132.066 20.1149 131.517 20.2415 131.011 20.4103C130.504 20.5791 130.04 20.7902 129.576 21.0434C129.111 21.2967 128.689 21.6343 128.352 21.972C128.014 22.3096 127.718 22.7317 127.507 23.2382C127.296 23.7447 127.212 24.2934 127.212 24.9265C127.212 25.8128 127.423 26.5726 127.887 27.2901C128.309 27.9654 128.9 28.4719 129.66 28.8518C130.377 29.1894 131.222 29.4005 132.066 29.4005C133.037 29.4005 133.923 29.1472 134.767 28.6829C135.358 28.3453 135.864 27.881 136.286 27.3745C136.286 27.4589 136.286 27.5855 136.286 27.67V28.3453C136.286 28.7251 136.624 29.0628 137.004 29.0628H139.241C139.621 29.0628 139.959 28.7251 139.959 28.3453V20.0726C139.959 18.2577 139.41 16.8227 138.355 15.8097C137.215 14.7545 135.696 14.248 133.838 14.248ZM135.991 22.6473V22.8161C135.991 23.3648 135.864 23.9135 135.611 24.4622C135.358 25.0109 135.02 25.433 134.514 25.8128C134.049 26.1505 133.543 26.3193 132.952 26.3193C132.361 26.3193 131.897 26.1505 131.559 25.855C131.222 25.5174 131.053 25.1375 131.053 24.7154C131.053 24.42 131.137 24.209 131.264 23.9979C131.39 23.7869 131.559 23.5759 131.813 23.4492C132.066 23.2804 132.361 23.1538 132.657 23.0694C132.952 22.985 133.29 22.9005 133.627 22.8583C134.007 22.8161 134.345 22.7739 134.64 22.7739C134.936 22.7317 135.273 22.7317 135.569 22.7317H135.991V22.6473Z" fill="#fff"/>
<path d="M154.858 14.8811C154.731 14.6701 154.52 14.5857 154.267 14.5857H151.566C151.27 14.5857 150.975 14.7967 150.89 15.0922L148.231 22.9005C148.147 23.2382 148.02 23.5758 147.936 24.0401C147.894 23.9135 147.852 23.7869 147.852 23.6603C147.767 23.3226 147.683 23.0694 147.598 22.8583L144.77 15.0922C144.686 14.7967 144.391 14.6279 144.095 14.6279H141.267C141.014 14.6279 140.803 14.7545 140.676 14.9656C140.55 15.1766 140.507 15.4298 140.634 15.6409L146.163 28.5141C146.205 28.5985 146.205 28.6829 146.163 28.7251L145.741 29.7803C145.488 30.329 145.192 30.7511 144.77 31.0465C144.348 31.342 143.926 31.4686 143.462 31.4686C143.251 31.4686 143.04 31.4264 142.787 31.342C142.449 31.2154 142.322 31.1309 142.28 31.0887C142.154 31.0043 142.027 31.0043 141.9 31.0465C141.774 31.0887 141.689 31.1732 141.605 31.2998L140.634 33.4946C140.55 33.6634 140.634 33.8744 140.761 34.001C140.845 34.0855 141.014 34.1699 141.225 34.2543C141.394 34.3387 141.605 34.4231 141.858 34.5075C142.111 34.5919 142.365 34.6764 142.702 34.7608C143.04 34.8452 143.378 34.8874 143.715 34.8874C144.433 34.8874 145.15 34.7608 145.826 34.5075C146.501 34.2543 147.092 33.8322 147.683 33.2413C148.231 32.6504 148.696 31.9329 148.991 31.0887L154.985 15.5987C155.027 15.3454 154.985 15.0922 154.858 14.8811Z" fill="#fff"/>
<path d="M63.1833 9.0564H60.2288C59.9333 9.0564 59.6801 9.22523 59.5535 9.52068L55.797 18.8907C55.5438 19.5238 55.2905 20.3257 54.9951 21.2121C54.9107 20.9166 54.784 20.579 54.6152 20.1569C54.4464 19.6504 54.3198 19.2706 54.1931 18.8907L50.5211 9.52068C50.3945 9.26743 50.1412 9.0564 49.8458 9.0564H46.8913C46.5114 9.0564 46.216 9.35185 46.1738 9.73171L44.6543 28.2607C44.6543 28.4717 44.6965 28.6406 44.8231 28.8094C44.9497 28.936 45.1608 29.0204 45.3718 29.0204H47.9043C48.2841 29.0204 48.5796 28.725 48.6218 28.3451L49.3393 15.7674C49.4237 16.0206 49.5081 16.316 49.6348 16.6959C49.8036 17.2024 49.9724 17.6245 50.099 17.9621L53.138 25.2218C53.2646 25.475 53.5178 25.6439 53.8133 25.6439H56.2191C56.5145 25.6439 56.7678 25.475 56.8944 25.2218L59.9333 17.9621C60.1444 17.3712 60.3976 16.6537 60.6931 15.8096L61.4528 28.3451C61.495 28.725 61.7904 29.0204 62.1703 29.0204H64.7027C64.9138 29.0204 65.0826 28.936 65.2092 28.8094C65.3359 28.6828 65.4203 28.4717 65.3781 28.2607L63.8586 9.73171C63.9008 9.35185 63.5632 9.0564 63.1833 9.0564Z" fill="#fff"/>
<path d="M13.2521 1.29787C16.2488 -0.432625 19.9631 -0.432625 22.9598 1.29787L31.359 6.15171C34.3557 7.88221 36.2129 11.09 36.2129 14.551V24.2164C36.2129 27.6774 34.3557 30.8852 31.359 32.6157L22.9598 37.4695C19.9631 39.2 16.2488 39.2 13.2521 37.4695L4.85286 32.6157C1.85614 30.8852 -0.000976562 27.6774 -0.000976562 24.2164V14.551C-0.000976562 11.09 1.85614 7.88221 4.85286 6.15171L13.2521 1.29787Z" fill="url(#paint0_linear)"/>
<path opacity="0.9" d="M25.7453 28.3529C24.1415 28.4795 22.7908 27.2977 22.6642 25.6938L21.7778 13.4537C21.6512 11.8498 22.833 10.4992 24.4369 10.3726C26.0408 10.246 27.3914 11.4278 27.518 13.0316L28.4044 25.2717C28.4888 26.8756 27.307 28.2685 25.7453 28.3529Z" fill="white"/>
<path d="M26.2099 10.8365L26.0411 10.7521C24.7327 9.99235 23.0022 10.4144 22.2425 11.6384L18.0639 18.1383L14.0965 11.9339C13.6744 11.0897 12.788 10.4566 11.7751 10.4144C10.1712 10.2878 8.82055 11.4696 8.69393 13.0735L7.80757 25.3136C7.63874 26.9175 8.86276 28.2681 10.4666 28.3947C12.0705 28.5213 13.4211 27.3395 13.5478 25.7357L13.8854 21.0929L15.7847 24.0474C15.9958 24.4694 16.2912 24.8493 16.7133 25.1025C17.9373 25.8623 19.5412 25.5246 20.2587 24.3006L27.4762 12.9891C27.3917 11.8495 26.6742 11.1319 26.2099 10.8365Z" fill="white"/>
<defs>
<linearGradient id="paint0_linear" x1="33.2837" y1="38.8116" x2="1.91135" y2="-5.28574" gradientUnits="userSpaceOnUse">
<stop stop-color="#20BF6B"/>
<stop offset="1" stop-color="#26DE81"/>
</linearGradient>
</defs>
</svg>
