<svg width="59" height="16" viewBox="0 0 59 16" fill="none" xmlns="http://www.w3.org/2000/svg">
<path d="M7.04165 15.9589C5.75894 15.9589 4.57542 15.6508 3.49107 15.0347C2.41995 14.4048 1.56701 13.5353 0.932275 12.4262C0.310758 11.3034 0 10.0436 0 8.64698C0 7.25032 0.310758 5.99743 0.932275 4.88832C1.56701 3.7792 2.41995 2.91656 3.49107 2.30038C4.57542 1.67052 5.75894 1.35558 7.04165 1.35558C8.33758 1.35558 9.5211 1.67052 10.5922 2.30038C11.6766 2.91656 12.5295 3.7792 13.151 4.88832C13.7725 5.99743 14.0833 7.25032 14.0833 8.64698C14.0833 10.0436 13.7725 11.3034 13.151 12.4262C12.5295 13.5353 11.6766 14.4048 10.5922 15.0347C9.5211 15.6508 8.33758 15.9589 7.04165 15.9589ZM7.04165 13.9255C7.95409 13.9255 8.76735 13.7133 9.48143 13.2888C10.1955 12.8507 10.7509 12.2345 11.1476 11.4403C11.5576 10.6324 11.7625 9.70133 11.7625 8.64698C11.7625 7.59264 11.5576 6.66838 11.1476 5.8742C10.7509 5.08002 10.1955 4.47069 9.48143 4.04621C8.76735 3.62174 7.95409 3.4095 7.04165 3.4095C6.12921 3.4095 5.31595 3.62174 4.60187 4.04621C3.88778 4.47069 3.32577 5.08002 2.91584 5.8742C2.51913 6.66838 2.32077 7.59264 2.32077 8.64698C2.32077 9.70133 2.51913 10.6324 2.91584 11.4403C3.32577 12.2345 3.88778 12.8507 4.60187 13.2888C5.31595 13.7133 6.12921 13.9255 7.04165 13.9255Z" fill="white"/>
<path d="M18.3714 6.14121C18.702 5.56611 19.1383 5.1211 19.6805 4.80616C20.2359 4.47754 20.8905 4.31322 21.6442 4.31322V6.73684H21.069C20.183 6.73684 19.5086 6.96962 19.0458 7.43517C18.5962 7.90073 18.3714 8.7086 18.3714 9.85879V15.8151H16.1101V4.49808H18.3714V6.14121Z" fill="white"/>
<path d="M25.7857 6.18229C26.1692 5.63457 26.6915 5.18956 27.3527 4.84724C28.0271 4.49123 28.7743 4.31322 29.5941 4.31322C30.5595 4.31322 31.4322 4.55285 32.2124 5.03209C32.9926 5.51134 33.6076 6.19598 34.0572 7.08601C34.5068 7.96235 34.7316 8.96876 34.7316 10.1053C34.7316 11.2418 34.5068 12.2619 34.0572 13.1656C33.6076 14.0556 32.986 14.754 32.1926 15.2606C31.4124 15.7535 30.5463 16 29.5941 16C28.7478 16 27.9941 15.8288 27.3329 15.4865C26.6849 15.1442 26.1692 14.706 25.7857 14.172V15.8151H23.5244V0.616175H25.7857V6.18229ZM32.4306 10.1053C32.4306 9.32478 32.272 8.65383 31.9546 8.09243C31.6504 7.51733 31.2405 7.08601 30.7248 6.79846C30.2223 6.49722 29.6801 6.3466 29.0982 6.3466C28.5296 6.3466 27.9875 6.49722 27.4717 6.79846C26.9692 7.0997 26.5593 7.53787 26.2419 8.11297C25.9378 8.68806 25.7857 9.36585 25.7857 10.1463C25.7857 10.9268 25.9378 11.6115 26.2419 12.2003C26.5593 12.7754 26.9692 13.2135 27.4717 13.5148C27.9875 13.816 28.5296 13.9666 29.0982 13.9666C29.6801 13.9666 30.2223 13.816 30.7248 13.5148C31.2405 13.1998 31.6504 12.748 31.9546 12.1592C32.272 11.5704 32.4306 10.8858 32.4306 10.1053Z" fill="white"/>
<path d="M37.9198 2.99872C37.5099 2.99872 37.1661 2.85494 36.8884 2.56739C36.6107 2.27985 36.4718 1.92383 36.4718 1.49936C36.4718 1.07488 36.6107 0.718871 36.8884 0.431323C37.1661 0.143774 37.5099 0 37.9198 0C38.3166 0 38.6538 0.143774 38.9315 0.431323C39.2092 0.718871 39.348 1.07488 39.348 1.49936C39.348 1.92383 39.2092 2.27985 38.9315 2.56739C38.6538 2.85494 38.3166 2.99872 37.9198 2.99872ZM39.0306 4.49808V15.8151H36.7694V4.49808H39.0306Z" fill="white"/>
<path d="M44.4393 6.40822V12.6727C44.4393 13.0971 44.5318 13.4052 44.717 13.5969C44.9153 13.7749 45.2459 13.8639 45.7087 13.8639H47.0972V15.8151H45.312C44.2938 15.8151 43.5136 15.5687 42.9714 15.0757C42.4292 14.5828 42.1582 13.7818 42.1582 12.6727V6.40822H40.8688V4.49808H42.1582V1.68421H44.4393V4.49808H47.0972V6.40822H44.4393Z" fill="white"/>
<path d="M59 9.87933C59 10.3038 58.9735 10.6872 58.9207 11.0295H50.5699C50.636 11.9332 50.96 12.659 51.5418 13.2067C52.1236 13.7544 52.8377 14.0282 53.6841 14.0282C54.9006 14.0282 55.7602 13.5011 56.2627 12.4467H58.7025C58.3719 13.4874 57.7702 14.3432 56.8974 15.0141C56.0379 15.6714 54.9668 16 53.6841 16C52.6394 16 51.7005 15.7604 50.8674 15.2811C50.0475 14.7882 49.3996 14.1036 48.9235 13.2272C48.4607 12.3372 48.2293 11.3102 48.2293 10.1463C48.2293 8.98246 48.4541 7.96235 48.9037 7.08601C49.3665 6.19598 50.0078 5.51134 50.8277 5.03209C51.6608 4.55285 52.6129 4.31322 53.6841 4.31322C54.7155 4.31322 55.6346 4.546 56.4412 5.01155C57.2478 5.47711 57.876 6.13436 58.3256 6.98331C58.7752 7.81857 59 8.78391 59 9.87933ZM56.6396 9.13992C56.6263 8.27728 56.3288 7.58579 55.747 7.06547C55.1651 6.54514 54.4444 6.28498 53.5849 6.28498C52.8047 6.28498 52.1369 6.54514 51.5815 7.06547C51.0261 7.5721 50.6955 8.26359 50.5897 9.13992H56.6396Z" fill="white"/>
</svg>
